<svg xmlns="http://www.w3.org/2000/svg" viewBox="0 0 64 64" fill="none">
  <rect width="64" height="64" rx="18" fill="#020617" />
  <path d="M17 23.5C17 18.2533 21.2533 14 26.5 14H37.5C42.7467 14 47 18.2533 47 23.5V40.5C47 45.7467 42.7467 50 37.5 50H26.5C21.2533 50 17 45.7467 17 40.5V23.5Z" fill="#0F172A" stroke="#38BDF8" stroke-width="2.5" />
  <path d="M25 24C25 21.7909 26.7909 20 29 20H35C40.5228 20 45 24.4772 45 30C45 35.5228 40.5228 40 35 40H29C26.7909 40 25 38.2091 25 36V24Z" fill="#38BDF8" fill-opacity="0.22" stroke="#38BDF8" stroke-width="2.5" />
  <path d="M29 26H35C37.7614 26 40 28.2386 40 31C40 33.7614 37.7614 36 35 36H29V26Z" fill="#38BDF8" />
</svg>
